<svg width="40" height="40" viewBox="0 0 40 40" fill="none" xmlns="http://www.w3.org/2000/svg">
<path d="M0 19.9957C0 22.0465 0.31099 24.0217 0.890943 25.8877C0.9834 26.1987 1.09267 26.5013 1.20193 26.8038C1.43728 27.4342 1.69784 28.0478 1.98361 28.6446C5.19437 35.2258 11.9437 39.7561 19.7604 39.7561V39.0501C16.4909 39.0501 13.8348 36.3857 13.8348 33.1161C13.8348 29.8465 16.4825 27.1905 19.7604 27.1821V25.8793C18.9704 25.8793 18.3232 25.2405 18.3232 24.442C18.3232 23.6435 18.962 23.0047 19.7604 23.0047V21.7692C18.7771 21.7692 17.9786 20.9707 17.9786 19.9873C17.9786 19.0039 18.7771 18.2054 19.7604 18.2054V16.9699C18.9704 16.9699 18.3232 16.3311 18.3232 15.5326C18.3232 14.7341 18.962 14.0953 19.7604 14.0953V12.7841C16.4909 12.7841 13.8348 10.1197 13.8348 6.85008C13.8348 3.58049 16.4825 0.924468 19.7604 0.916062H20.3152L20.332 0.243652C9.42215 0.252057 0 9.07744 0 19.9957ZM17.4574 22.181C17.4574 22.9711 16.8187 23.6183 16.0202 23.6183C15.2217 23.6183 14.5829 22.9795 14.5829 22.181C14.5829 21.3825 15.2217 20.7438 16.0202 20.7438C16.8187 20.7438 17.4574 21.3825 17.4574 22.181ZM14.6585 25.8877C14.6753 26.0642 14.6838 26.2491 14.6838 26.434C14.6838 29.712 12.0277 32.368 8.74973 32.368C6.26182 32.368 4.13532 30.8383 3.25278 28.6614C3.06787 28.1991 2.93339 27.7116 2.86615 27.2073C2.83253 26.9551 2.81572 26.6946 2.81572 26.434C2.81572 26.2491 2.81572 26.0726 2.84093 25.8877C3.1183 22.8618 5.65665 20.5 8.74973 20.5C11.8428 20.5 14.3812 22.8702 14.6585 25.8877ZM17.4574 17.8188C17.4574 18.6088 16.8187 19.256 16.0202 19.256C15.2217 19.256 14.5829 18.6173 14.5829 17.8188C14.5829 17.0203 15.2217 16.3815 16.0202 16.3815C16.8187 16.3815 17.4574 17.0203 17.4574 17.8188ZM14.6753 13.5658C14.6753 16.8438 12.0193 19.4998 8.74133 19.4998C5.46333 19.4998 2.80731 16.8438 2.80731 13.5658C2.80731 10.2878 5.46333 7.63176 8.74133 7.63176C12.0193 7.63176 14.6753 10.2878 14.6753 13.5658Z" fill="#6F99FF"/>
<path d="M20.3405 0.251953C31.1999 0.251953 40 9.05212 40 19.9115C40 30.771 31.1999 39.5711 20.3405 39.5711V0.251953Z" fill="url(#paint0_linear_4001_1018)"/>
<defs>
<linearGradient id="paint0_linear_4001_1018" x1="20.3405" y1="19.9115" x2="40" y2="19.9115" gradientUnits="userSpaceOnUse">
<stop stop-color="white"/>
<stop offset="1" stop-color="#F5D010"/>
</linearGradient>
</defs>
</svg>
